<svg id="Calque_1" data-name="Calque 1" xmlns="http://www.w3.org/2000/svg" xmlns:xlink="http://www.w3.org/1999/xlink" viewBox="0 0 329.88 110"><defs><style>.cls-1,.cls-2{fill:#fff;}.cls-2{font-size:46.18px;font-family:Khand;font-weight:700;letter-spacing:3.48px;}.cls-3{fill:url(#Dégradé_sans_nom_100);}.cls-4{fill:url(#Dégradé_sans_nom_663);}.cls-5{fill:url(#Dégradé_sans_nom_111);}.cls-10,.cls-6{opacity:0.6;}.cls-6{fill:url(#Dégradé_sans_nom_125);}.cls-7{fill:url(#Dégradé_sans_nom_100-2);}.cls-8{fill:url(#Dégradé_sans_nom_663-2);}.cls-9{fill:url(#Dégradé_sans_nom_111-2);}.cls-10{fill:url(#Dégradé_sans_nom_125-2);}.cls-11{opacity:0.15;}</style><radialGradient id="Dégradé_sans_nom_100" cx="197.22" cy="1620.77" r="21.76" gradientTransform="matrix(0.47, 0.89, -0.89, 0.47, 2032.94, 692.83)" gradientUnits="userSpaceOnUse"><stop offset="0" stop-color="#2e2e2e"/><stop offset="0.38" stop-color="#252525"/><stop offset="1" stop-color="#0d0d0d"/></radialGradient><linearGradient id="Dégradé_sans_nom_663" x1="691.92" y1="1654" x2="738.27" y2="1696.29" gradientUnits="userSpaceOnUse"><stop offset="0" stop-color="#292929"/><stop offset="0.17" stop-color="#4c4c4c"/><stop offset="0.39" stop-color="#757575"/><stop offset="0.51" stop-color="#858585"/><stop offset="0.51" stop-color="#858585"/><stop offset="0.72" stop-color="#acacac"/><stop offset="0.89" stop-color="#c3c3c3"/><stop offset="1" stop-color="#ccc"/></linearGradient><linearGradient id="Dégradé_sans_nom_111" x1="691.75" y1="1671.53" x2="741.89" y2="1614.59" gradientTransform="matrix(1, 0.02, 0, 1, 3.08, -15.39)" gradientUnits="userSpaceOnUse"><stop offset="0" stop-color="#262626"/><stop offset="0.19" stop-color="#484848"/><stop offset="0.57" stop-color="#8b8b8b"/><stop offset="0.86" stop-color="#b4b4b4"/><stop offset="1" stop-color="#c4c4c4"/></linearGradient><linearGradient id="Dégradé_sans_nom_125" x1="678.76" y1="1670.47" x2="780.62" y2="1592.36" gradientTransform="matrix(1, 0.02, 0, 1, 3.08, -15.39)" gradientUnits="userSpaceOnUse"><stop offset="0" stop-color="#383838"/><stop offset="0.1" stop-color="#484848"/><stop offset="0.53" stop-color="#8b8b8b"/><stop offset="0.84" stop-color="#b4b4b4"/><stop offset="1" stop-color="#c4c4c4"/></linearGradient><radialGradient id="Dégradé_sans_nom_100-2" cx="184.69" cy="1595.59" r="20.77" gradientTransform="matrix(0.47, 0.89, -0.89, 0.47, 2001.45, 691.78)" xlink:href="#Dégradé_sans_nom_100"/><linearGradient id="Dégradé_sans_nom_663-2" x1="676.37" y1="1629.03" x2="720.6" y2="1669.39" xlink:href="#Dégradé_sans_nom_663"/><linearGradient id="Dégradé_sans_nom_111-2" x1="676.15" y1="1646.01" x2="724" y2="1591.68" xlink:href="#Dégradé_sans_nom_111"/><linearGradient id="Dégradé_sans_nom_125-2" x1="668.63" y1="1641.25" x2="756.07" y2="1574.19" xlink:href="#Dégradé_sans_nom_125"/></defs><title>logo-horizontal</title><circle class="cls-1" cx="55" cy="55" r="55"/><text class="cls-2" transform="translate(122.4 67.92) scale(1.15 1)">Schedule</text><path class="cls-3" d="M700.56,1645.68l-11.1-9.3a12.12,12.12,0,0,0-17.19,1.47h0a12.41,12.41,0,0,0,1.74,17.33C680.8,1659.56,690.56,1658,700.56,1645.68Z" transform="translate(-645.56 -1579.05)"/><path class="cls-4" d="M674,1655.18l15.88,13.31a18.11,18.11,0,0,0,25.69-2.2l3.87-4.71-18.91-15.89C690.55,1658,680.8,1659.56,674,1655.18Z" transform="translate(-645.56 -1579.05)"/><path class="cls-5" d="M742.21,1614.43h0A12.12,12.12,0,0,0,725,1615.9l-24.46,29.77h0l18.91,15.89,24.49-29.81A12.41,12.41,0,0,0,742.21,1614.43Z" transform="translate(-645.56 -1579.05)"/><path class="cls-6" d="M723.34,1617.95l-22.78,27.73h0l18.91,15.89,8.37-10.19c0-.44,0-0.88,0-1.32C728.36,1639.77,726.32,1627.18,723.34,1617.95Z" transform="translate(-645.56 -1579.05)"/><path class="cls-7" d="M684.61,1621.09L674,1612.21a11.56,11.56,0,0,0-16.4,1.4h0a11.84,11.84,0,0,0,1.66,16.54C665.76,1634.34,675.07,1632.82,684.61,1621.09Z" transform="translate(-645.56 -1579.05)"/><path class="cls-8" d="M659.27,1630.16l15.16,12.7a17.28,17.28,0,0,0,24.52-2.1l3.69-4.5-18-15.16C675.06,1632.82,665.75,1634.33,659.27,1630.16Z" transform="translate(-645.56 -1579.05)"/><path class="cls-9" d="M724.36,1591.27h0a11.56,11.56,0,0,0-16.4,1.4l-23.34,28.41h0l18,15.16L726,1607.81A11.84,11.84,0,0,0,724.36,1591.27Z" transform="translate(-645.56 -1579.05)"/><path class="cls-10" d="M684.6,1621.1l18,15.16,16.87-20.53a40.22,40.22,0,0,0-13.07-21.21l-21.83,26.57h0Z" transform="translate(-645.56 -1579.05)"/><ellipse class="cls-11" cx="53.79" cy="100.19" rx="23.53" ry="1.17"/></svg>