<svg id="Calque_1" data-name="Calque 1" xmlns="http://www.w3.org/2000/svg" xmlns:xlink="http://www.w3.org/1999/xlink" viewBox="0 0 370 370"><defs><style>.cls-1{fill:#fff;}.cls-2{fill:url(#Dégradé_sans_nom_100);}.cls-3{fill:url(#Dégradé_sans_nom_663);}.cls-4{fill:url(#Dégradé_sans_nom_111);}.cls-5,.cls-9{opacity:0.6;}.cls-5{fill:url(#Dégradé_sans_nom_125);}.cls-6{fill:url(#Dégradé_sans_nom_100-2);}.cls-7{fill:url(#Dégradé_sans_nom_663-2);}.cls-8{fill:url(#Dégradé_sans_nom_111-2);}.cls-9{fill:url(#Dégradé_sans_nom_125-2);}.cls-10{opacity:0.15;}</style><radialGradient id="Dégradé_sans_nom_100" cx="292.02" cy="1248.36" r="74.62" gradientTransform="matrix(0.47, 0.89, -0.89, 0.47, 1711.85, 404.21)" gradientUnits="userSpaceOnUse"><stop offset="0" stop-color="#2e2e2e"/><stop offset="0.38" stop-color="#252525"/><stop offset="1" stop-color="#0d0d0d"/></radialGradient><linearGradient id="Dégradé_sans_nom_663" x1="780.68" y1="1319.57" x2="939.6" y2="1464.59" gradientUnits="userSpaceOnUse"><stop offset="0" stop-color="#292929"/><stop offset="0.17" stop-color="#4c4c4c"/><stop offset="0.39" stop-color="#757575"/><stop offset="0.51" stop-color="#858585"/><stop offset="0.51" stop-color="#858585"/><stop offset="0.72" stop-color="#acacac"/><stop offset="0.89" stop-color="#c3c3c3"/><stop offset="1" stop-color="#ccc"/></linearGradient><linearGradient id="Dégradé_sans_nom_111" x1="779.23" y1="1383.92" x2="951.13" y2="1188.71" gradientTransform="matrix(1, 0.02, 0, 1, 3.08, -15.39)" gradientUnits="userSpaceOnUse"><stop offset="0" stop-color="#262626"/><stop offset="0.19" stop-color="#484848"/><stop offset="0.57" stop-color="#8b8b8b"/><stop offset="0.86" stop-color="#b4b4b4"/><stop offset="1" stop-color="#c4c4c4"/></linearGradient><linearGradient id="Dégradé_sans_nom_125" x1="734.68" y1="1380.31" x2="1083.92" y2="1112.47" gradientTransform="matrix(1, 0.02, 0, 1, 3.08, -15.39)" gradientUnits="userSpaceOnUse"><stop offset="0" stop-color="#383838"/><stop offset="0.1" stop-color="#484848"/><stop offset="0.53" stop-color="#8b8b8b"/><stop offset="0.84" stop-color="#b4b4b4"/><stop offset="1" stop-color="#c4c4c4"/></linearGradient><radialGradient id="Dégradé_sans_nom_100-2" cx="249.06" cy="1162.05" r="71.21" gradientTransform="matrix(0.47, 0.89, -0.89, 0.47, 1603.9, 400.62)" xlink:href="#Dégradé_sans_nom_100"/><linearGradient id="Dégradé_sans_nom_663-2" x1="727.35" y1="1233.94" x2="879" y2="1372.33" xlink:href="#Dégradé_sans_nom_663"/><linearGradient id="Dégradé_sans_nom_111-2" x1="725.75" y1="1296.44" x2="889.8" y2="1110.15" xlink:href="#Dégradé_sans_nom_111"/><linearGradient id="Dégradé_sans_nom_125-2" x1="699.96" y1="1280.09" x2="999.75" y2="1050.18" xlink:href="#Dégradé_sans_nom_125"/></defs><title>logo-single</title><circle class="cls-1" cx="185" cy="185" r="185"/><path class="cls-2" d="M810.27,1291l-38.06-31.9c-17.92-15-44.31-12.76-58.94,5h0c-14.63,17.81-12,44.42,6,59.44C742.54,1338.65,776,1333.21,810.27,1291Z" transform="translate(-625.23 -1066.16)"/><path class="cls-3" d="M719.24,1323.63l54.46,45.64c26.79,22.45,66.23,19.07,88.09-7.54l13.27-16.16-64.83-54.48C776,1333.22,742.53,1338.64,719.24,1323.63Z" transform="translate(-625.23 -1066.16)"/><path class="cls-4" d="M953.08,1183.91h0c-17.92-15-44.31-12.76-58.94,5L810.27,1291l0,0,64.83,54.48,84-102.22C973.67,1225.54,971,1198.93,953.08,1183.91Z" transform="translate(-625.23 -1066.16)"/><path class="cls-5" d="M888.39,1196L810.27,1291l0,0,64.83,54.48,28.71-35c0-1.51,0-3,.06-4.53C905.59,1270.77,898.6,1227.63,888.39,1196Z" transform="translate(-625.23 -1066.16)"/><path class="cls-6" d="M755.59,1206.72l-36.32-30.44C702.17,1162,677,1164.11,663,1181.1h0c-14,17-11.41,42.39,5.69,56.72C691,1252.15,722.89,1247,755.59,1206.72Z" transform="translate(-625.23 -1066.16)"/><path class="cls-7" d="M668.72,1237.82l52,43.55c25.56,21.42,63.2,18.2,84.07-7.2l12.67-15.42-61.87-52C722.86,1247,690.95,1252.14,668.72,1237.82Z" transform="translate(-625.23 -1066.16)"/><path class="cls-8" d="M891.87,1104.49h0c-17.1-14.33-42.28-12.18-56.24,4.81l-80,97.42,0,0,61.87,52,80.14-97.55C911.52,1144.21,909,1118.82,891.87,1104.49Z" transform="translate(-625.23 -1066.16)"/><path class="cls-9" d="M755.55,1206.77l61.87,52,57.84-70.4c-7.42-28.93-22.6-54.23-44.83-72.73l-74.84,91.1Z" transform="translate(-625.23 -1066.16)"/><ellipse class="cls-10" cx="180.88" cy="339.95" rx="80.68" ry="4.02"/></svg>